<svg xmlns="http://www.w3.org/2000/svg" xmlns:xlink="http://www.w3.org/1999/xlink" width="142.96" height="170.68" viewBox="0 0 142.96 170.68"><defs><clipPath id="a" transform="translate(-3.38 -0.84)"><rect x="8.45" y="5.03" width="118.06" height="99.19" transform="translate(134.96 109.26) rotate(180)" fill="none"/></clipPath></defs><path d="M17.35,171.53H9.41l12.37-38.4h9l12.37,38.4H34.85l-2.51-8.64H19.91Zm1.82-9.71H33.09l2.5,8.64h6.13L30.05,134.2H22.47L10.79,170.46h5.82Zm12.42-5.12-5-17.28h-.75L20.71,156.7Zm-5.38-15.14,4.05,14.07H22.05Z" transform="translate(-3.38 -0.84)" fill="#fff"/><path d="M68.18,133.13a7.22,7.22,0,0,1,7.57,7.57V164a7.23,7.23,0,0,1-7.57,7.58h-20v-38.4Zm-1.92,31.14a1.63,1.63,0,0,0,1.81-1.81V142.2a1.63,1.63,0,0,0-1.81-1.82H55.86v23.89Z" transform="translate(-3.38 -0.84)" fill="#fff"/><path d="M108.39,133.13v7.25H91v7.89h14.13v7.26H91v8.74h17.44v7.26H83.27v-38.4Z" transform="translate(-3.38 -0.84)" fill="#fff"/><path d="M119.64,171.53h-8.37l11.52-19.68-11.2-18.72h9l7.15,12.11,7.09-12.11h8.37L132,152.33l11.46,19.2h-9l-7.46-12.7Z" transform="translate(-3.38 -0.84)" fill="#fff"/><polygon points="0.88 119.15 71.48 0.97 142.08 119.15 0.88 119.15" fill="#010101"/><path d="M74.86,2.79l69.72,116.7H5.14L74.86,2.79m0-1.95L3.38,120.49h143L74.86.84Z" transform="translate(-3.38 -0.84)" fill="#fff"/><path d="M74.86,37l40.58,67.91H34.29L74.86,37m0-3.64L31,106.75h87.73L74.86,33.33Z" transform="translate(-3.38 -0.84)" fill="#fff"/><path d="M74.86,37l40.58,67.91H34.29L74.86,37m0-3.64L31,106.75h87.73L74.86,33.33Z" transform="translate(-3.38 -0.84)" fill="#fff"/><g clip-path="url(#a)"><path d="M99.53,54.75c.18-.09,3.65-1.09,3.65-1.09s.66-1.32,1.77-1.43a3.55,3.55,0,0,1,2.18.74l4-.89a6.72,6.72,0,0,1,3.48.14c1.68.6,1.7,1,2.21.67a3.38,3.38,0,0,0,1.31-1.69,3.19,3.19,0,0,1,2.58-1.78,2.21,2.21,0,0,1,2.21,1.11,6.16,6.16,0,0,0,.37,1.08c.09.18,1.78.94,1.6,2.35a6.05,6.05,0,0,1-1.82,2.88,7.11,7.11,0,0,1,1.29,2.5c0,.86-1.58-1.2-2.64-.67s-1.54,3.68-.07,5.65,2.1.22,2.1.22.27-1.34.45-2,.79.49.88,1.11a4.89,4.89,0,0,1,0,1.14,21.6,21.6,0,0,1,1.83,2.13c.22.44.94,1,.23,1.7s-.84.41-2.21,1.09-2.32,1.43-3.11,1.49-2.18-.73-2.61-.14,0,2.52-1,3.51S114.81,76,113,77.85A7.5,7.5,0,0,0,110.66,84a7.71,7.71,0,0,1-.7,3.92c0-.06,1.71,11.72,1.71,11.72a6.27,6.27,0,0,0,2,2.5c1.15.64,2.1,8.39,2.1,8.39s4.87,9.15,4.75,9.26-6.27,2.34-6.27,2.34l-4.27-12.38s-3.7-1.69-4.27-2.51c.14,1.85-.2,4.72,1.34,6.6s2.77,3.58,3.08,3.76,1.36.54,3.72.19,5.19-.42,7.41,2.28l-12,6a2.64,2.64,0,0,1-2.56.05,3.3,3.3,0,0,0-2.43-.23s-1.68.51-3.79-2.08-7-5.17-7.61-5.48-4-2.64-4-2.64l-2.41,1a16.9,16.9,0,0,1,2.1,6.67c.08,3.15.07,4.81.73,5.58s1.3,1.4,1.3,1.4.06.68,1,.62,3.07-.59,4,.28C92.83,132.79,83,137.72,83,137.72a1.47,1.47,0,0,0-1.37-.76c-1.06,0-1.43.22-3.36-2.9s-5.27-7.3-7.72-7.13c-.39,1.89-1,8.64-2.81,12.12-.29,2.52-.16,2.89.23,3.8a6.25,6.25,0,0,0,.68,1.26s3.84.52,4.43,1.38-4.55,2.37-4.86,2.52l-8.47,4.47s-1.21.11-2.79-2.08-2.87-6.23-4.65-9a55,55,0,0,1-3.7-8.13s-.11,1.1-.51.85-2.72-3.82-2.36-5.43c-.6.79-.75.59-.75.59s-1.54-2.87-1.25-4.17l-.4.64a51,51,0,0,1-1.08-6.08c-2.27,0-2.53-.67-3.19-2.66s-1.59-4.77-.13-11.38,3.1-14.86,6.9-17.85,9-5.31,13.16-7.45,7-3.4,9.8-8.33S80.25,66.4,80.25,66.4a5.11,5.11,0,0,0,4-2.28c1.64-2.36,1.79-2.93,4.25-4,0,0-.36-3.73,1.07-4.28s1.92-.35,3.4.08c.89.26,3.28,1.29,4.61.41S97.19,55.91,99.53,54.75Z" transform="translate(-3.38 -0.84)" fill="#8cd3d7" stroke="#010101" stroke-linecap="round" stroke-linejoin="round" stroke-width="0.26"/><path d="M102.61,58s.35.49,2.43.23S108,56.68,108.8,56s1.12-.18,1.83-.09a1.56,1.56,0,0,0,.48,0,1.15,1.15,0,0,0,1.13-1c.16-1-1.85-1.62-1.85-1.62s.55.22.35.49-.88-.23-1.74-.07.33.11.33.33-1.26-.1-2.07.14.06.14.28.36-.81.13-1.59.46.84.13,1,.31-.53.48-.53.48" transform="translate(-3.38 -0.84)" fill="none" stroke="#010101" stroke-miterlimit="10" stroke-width="0.26"/><path d="M106.63,57.73a4.83,4.83,0,0,0,2.05.58c2,.1,2.72-1.29,1.95-2.4" transform="translate(-3.38 -0.84)" fill="none" stroke="#010101" stroke-miterlimit="10" stroke-width="0.2"/><path d="M108.13,57.1a1.11,1.11,0,0,0,1.59.42,1,1,0,0,0,.44-1.54c-.23-.47-1.23-.25-1.5.19S108,56.74,108.13,57.1Z" transform="translate(-3.38 -0.84)" fill="#e5f4f8" stroke="#010101" stroke-miterlimit="10" stroke-width="0.26"/><circle cx="106.36" cy="55.4" r="0.39" fill="#010101"/><path d="M119.66,53c.28-.07.78,0,.91-.26s-.22-.81-.54-1.23-.5-1,.16-1.31,1,1.95,1,1.95a.86.86,0,0,1-.63,1C119.7,53.44,119.15,53.18,119.66,53Z" transform="translate(-3.38 -0.84)" fill="#010101"/><path d="M122.43,51.44s.16-1.16-.22-1.24S122.43,51.44,122.43,51.44Z" transform="translate(-3.38 -0.84)" fill="#010101"/><path d="M95.57,63a3.35,3.35,0,0,0-.5-1.33c-.46-.77-1-.69-1.44-1.59s-1-.91-1.32-1.57-1.72-1.45-1.72-1.45-.56-.53-.9-.28-.49,1.35-.49,1.35" transform="translate(-3.38 -0.84)" fill="#8cd3d7" stroke="#010101" stroke-linecap="round" stroke-linejoin="round" stroke-width="0.53"/><path d="M112,57a2,2,0,0,1-.43,1.63,4.76,4.76,0,0,1-1.41.93,1.77,1.77,0,0,0,.56,0,3.8,3.8,0,0,1-1.49.62" transform="translate(-3.38 -0.84)" fill="none" stroke="#010101" stroke-miterlimit="10" stroke-width="0.2"/><path d="M117.07,52.79a3.48,3.48,0,0,1-2.4.57,2,2,0,0,0-2,.78" transform="translate(-3.38 -0.84)" fill="none" stroke="#010101" stroke-miterlimit="10" stroke-width="0.26"/><path d="M110.89,61.69a17.52,17.52,0,0,0-2.4,4.53,11.67,11.67,0,0,1,1.91-2.95,14.84,14.84,0,0,0-1.07,3.41c.81-1.39.72-2.12,1.43-3" transform="translate(-3.38 -0.84)" fill="none" stroke="#010101" stroke-miterlimit="10" stroke-width="0.2"/><path d="M112.77,64.33a10.75,10.75,0,0,0-1.43,3.24c.65-.94.56-1.66,2-2.89a17.37,17.37,0,0,0-.83,3.68c1-2.11.5-2.48,1.68-3.75" transform="translate(-3.38 -0.84)" fill="none" stroke="#010101" stroke-miterlimit="10" stroke-width="0.2"/><path d="M94.92,67.39s-.16,3.8.86,5.44-.57-1.25.54-2.31A8.72,8.72,0,0,0,98.6,74.8" transform="translate(-3.38 -0.84)" fill="#8cd3d7" stroke="#010101" stroke-linecap="round" stroke-linejoin="round" stroke-width="0.53"/><path d="M88.55,60.14a1.94,1.94,0,0,0,.34,1.46c.49.48.24,1.11.55,1.52s0,.78.5,1.23.06.73.49,1,0,.57.63.86a4.22,4.22,0,0,0,2.27.25" transform="translate(-3.38 -0.84)" fill="#8cd3d7" stroke="#010101" stroke-linecap="round" stroke-linejoin="round" stroke-width="0.53"/><path d="M121.32,55.48" transform="translate(-3.38 -0.84)" fill="none" stroke="#010101" stroke-miterlimit="10" stroke-width="0.2"/><path d="M120.41,56.24s-3.85,1.91-4.34,4a12.13,12.13,0,0,0-.37,2.17,2.23,2.23,0,0,0,.64,1.88,9.34,9.34,0,0,0,2.3,1.36,3.91,3.91,0,0,0,1.19.22c.67,0,1.28,1,1.79,1a6.18,6.18,0,0,0,2.72-.58c.37-.39.36-1.14-1-1.09s-2.27-1.78-2.49-2.44-.26-3.68,1-4.22.3-1.21.3-1.21Z" transform="translate(-3.38 -0.84)" fill="#25859b" stroke="#010101" stroke-miterlimit="10" stroke-width="0.26"/><path d="M120.24,64.13s-2.52-2.22-3.9-1.41c-1.79,1.05,2.3,2.92,2.3,2.92l1.58.19.51-1.43Z" transform="translate(-3.38 -0.84)" fill="#1b4c55"/><path d="M115.57,66.24" transform="translate(-3.38 -0.84)" fill="none" stroke="#010101" stroke-miterlimit="10" stroke-width="0.2"/><path d="M120.75,61.11c-.27-.21-1.34-2.61-3.44-1.49-2.26,1.2-.32-1-.32-1a10.69,10.69,0,0,1,2.1-1.64c1.33-.81,2.19-1.25,2.19-1.25a5.11,5.11,0,0,1,2.06,1.36,13,13,0,0,1,1.19,2.4s-.3.56-1.06-.27l-1-1-.6-.55s-1.25.64-1.19.63a9.1,9.1,0,0,0,.54,1.43,1.53,1.53,0,0,1,.23.79C121.54,60.84,121.64,61.83,120.75,61.11Z" transform="translate(-3.38 -0.84)" fill="#e5f4f8" stroke="#010101" stroke-miterlimit="10" stroke-width="0.26"/><path d="M125,65.7a6.4,6.4,0,0,0,.15-1.76c-.08-.78-.73-1.8-.93-1.38a4.52,4.52,0,0,0-.36,1.56,1.27,1.27,0,0,1-.51,1.12,3.17,3.17,0,0,1-.86.53s-.56.33-.84-.66-.87-2.06-1-1.68-.76,2.17-.39,2.4.81.3,1.08.63a1,1,0,0,0,1.37.4C123.51,66.59,124.53,66.7,125,65.7Z" transform="translate(-3.38 -0.84)" fill="#e5f4f8" stroke="#010101" stroke-miterlimit="10" stroke-width="0.26"/><path d="M122.26,54.33a4,4,0,0,1-1.59,1.78" transform="translate(-3.38 -0.84)" fill="#e5f4f8" stroke="#010101" stroke-miterlimit="10" stroke-width="0.26"/><path d="M100.88,73.52s-.44,1.45,1.21,4.6a10.87,10.87,0,0,1-3-5.8" transform="translate(-3.38 -0.84)" fill="#8cd3d7" stroke="#010101" stroke-linecap="round" stroke-linejoin="round" stroke-width="0.53"/><path d="M99.87,77.49s4,5,4.14,9.51,0,6.36.19,11.22,1,5.37,1.19,7.75.19,4.87.84,6.69" transform="translate(-3.38 -0.84)" fill="#8cd3d7" stroke="#010101" stroke-linecap="round" stroke-linejoin="round" stroke-width="0.53"/><path d="M77.18,91.87s6.87,4.19,7.18,9.16a55.29,55.29,0,0,0,.84,7.35l.93-1.78s1.1,8.54,3.87,9.81" transform="translate(-3.38 -0.84)" fill="#8cd3d7" stroke="#010101" stroke-linecap="round" stroke-linejoin="round" stroke-width="0.53"/><line x1="67.4" y1="85.44" x2="70.37" y2="86.45" fill="#8cd3d7" stroke="#010101" stroke-linecap="round" stroke-linejoin="round" stroke-width="0.53"/><line x1="69.11" y1="88.23" x2="72.54" y2="89.83" fill="#8cd3d7" stroke="#010101" stroke-linecap="round" stroke-linejoin="round" stroke-width="0.53"/><path d="M41.39,105.64a27.66,27.66,0,0,1,1.09,8.21c-.21,3.91,0,7.28,0,7.28" transform="translate(-3.38 -0.84)" fill="none" stroke="#010101" stroke-miterlimit="10" stroke-width="0.26"/><path d="M78.19,106.57s-4.72,5.47-5.86,9.18a48.07,48.07,0,0,0-1.49,9s-.63,9.07-2.09,11.12" transform="translate(-3.38 -0.84)" fill="#8cd3d7" stroke="#010101" stroke-linecap="round" stroke-linejoin="round" stroke-width="0.53"/><path d="M32.56,93.17" transform="translate(-3.38 -0.84)" fill="none" stroke="#010101" stroke-miterlimit="10" stroke-width="0.2"/><path d="M94.79,157c-2.71-.7-7-1.85-7.72-2.15.34-.35,2.36-1.89,4.29-3.24,1.71-1.19,2.61-6.18,2.5-7.44,0-.15,0-.31-.17-.37h-.12c-.71,0-4.25,2.63-4.65,2.93a9.66,9.66,0,0,0-1.77,2,4.94,4.94,0,0,1-1.36,1.47,2,2,0,0,1-.88.18,3.81,3.81,0,0,1-1-.17c-.24-.07-5-1.88-7.28-2.74L79.7,146s3.59-1.91,4.59-2.33a4.8,4.8,0,0,0,2-1.91l.6-.81c1.11-1.44-.41-4.77-2.39-7.18a13.28,13.28,0,0,1-2.73-5.21l-.13-.39c-1.34-1.39-4.76-2-8.38-2.56A52.07,52.07,0,0,1,67,124.38c-3.41-1-4-2.36-4.55-3.79a7.56,7.56,0,0,0-1-1.83c-1.62-2.11-3.71-3.2-8.79-5.23-4.12-1.65-6.77-3-7.89-4a10.27,10.27,0,0,1-1.45-1.75l-.16-.26-.12.28a53.38,53.38,0,0,1-3.42,6.86,12.86,12.86,0,0,0-1.7,2.94c-.08,1.68-.66,2.41-1.92,2.41l-.32,0h-.12c-1.4,0-2,2.28-2.2,2.93-.86-.23-4.89-1.36-7.52-2.07a16.43,16.43,0,0,1,5.44-3.82c1.52-.5,2-4.29,2.19-5.72l0-.26a7.32,7.32,0,0,1,.35-1.27,6.15,6.15,0,0,0,.48-3.24,3.31,3.31,0,0,1,1-2.71l3.43-4.34,0-.08s-.64-2.07-.94-3.52a13.44,13.44,0,0,1-.12-3.4c0-.06.81-2.29-.28-3.67A5,5,0,0,1,36.9,85a4.34,4.34,0,0,0-.18-1.9l-.15-.61,0-.18a4.92,4.92,0,0,1-.09-2.17v-.06l0-.06A1.75,1.75,0,0,1,36,78.51l.06-.16-1.25-.41s-2.07-.41-3.45-.71c-1.11-.24-1.3-.5-2-1.47-.12-.18-.26-.37-.43-.6a6.39,6.39,0,0,0-3.21-1.88,8.68,8.68,0,0,1-1.36-.55c-1-.59-1-1.45-.59-2.57l.06-.16-.17,0-1.14-.38h0a5.76,5.76,0,0,1-1.92-5.31c.54-2.64,2-2.86,3.37-2.86h.69a2.84,2.84,0,0,0,2.45-1.23l.38-.4a5.81,5.81,0,0,1,2.73-1.58c.63-.16.74-1.11.74-1.15a2.72,2.72,0,0,1,2.34-2.27l.15,0c.26-.07.82-.28,1.59-.58a50.33,50.33,0,0,1,7.48-2.37,14.53,14.53,0,0,1,2.54-.26,7.64,7.64,0,0,1,3.36.8c1.19.52,2,2.64,2.57,4.19.22.56.4,1,.58,1.41.69,1.39,1.67,1.49,3.28,1.66l.19,0c10.24.21,13.12,4.81,14.67,7.28.16.25.3.48.44.68.68,1,1.88,3.31,3.78,8.72a3.08,3.08,0,0,0,1,1.53.87.87,0,0,0,.48.18c1.25,1,2,1.63,3.41,3,.89.82,2.06,1.9,3.84,3.49a33.93,33.93,0,0,1,6,6.92c.49.71.91,1.32,1.37,1.87a14.56,14.56,0,0,0,6.08,3.88c1,.38,2.14.77,3.26,1.15a28.79,28.79,0,0,1,3.27,1.22c.84.44,3.37,1.8,5.21,7a33.67,33.67,0,0,0,5.5,9.38c0,.06,4.38,5,3.13,11.24-1.18,5.91-3.47,8.11-8.44,8.11h-.28c-4.83-.08-7.83-5.09-8.37-6.43l-.14-.34-.15.34c-1.18,2.53-.37,7.84.22,9.46.15.39.34.79.53,1.17.57,1.16,1.11,2.26.46,3.42-.94,1.65-2,7.19-2.22,9.09-.19,1.56-.74,1.56-1.22,1.56h-.38c-.75,0-.87.93-1,1.82a7.06,7.06,0,0,1-.11.71C95.3,156.81,94.89,156.94,94.79,157Z" transform="translate(-3.38 -0.84)" fill="#fff"/><path d="M45.12,51.69h0a7.57,7.57,0,0,1,3.3.79c1.13.49,1.91,2.57,2.49,4.09A15.38,15.38,0,0,0,51.49,58c.73,1.47,1.8,1.58,3.41,1.74l.21,0c10.14.22,13,4.77,14.52,7.21.16.25.31.49.45.69.67,1,1.87,3.29,3.76,8.68a3.23,3.23,0,0,0,1,1.61,1,1,0,0,0,.47.2,40.84,40.84,0,0,1,3.4,2.92c.87.8,2.07,1.91,3.84,3.49a33.43,33.43,0,0,1,6,6.9A23,23,0,0,0,90,93.34a14.87,14.87,0,0,0,6.14,3.93c1,.38,2.14.77,3.26,1.15a30.15,30.15,0,0,1,3.26,1.21c.82.44,3.31,1.77,5.13,7a33.94,33.94,0,0,0,5.53,9.44s4.33,5,3.1,11.1c-1.17,5.82-3.42,8-8.3,8h-.27c-4.74-.07-7.7-5-8.23-6.32l-.27-.68-.31.66c-1.19,2.57-.37,8,.22,9.58.15.4.35.8.54,1.19.55,1.13,1.07,2.19.46,3.27-1,1.7-2,7.18-2.24,9.15-.17,1.42-.6,1.42-1.06,1.42h-.4c-.87,0-1,1-1.13,2,0,.24-.06.48-.1.7-.12.6-.41.74-.51.77-2.46-.63-6.24-1.64-7.4-2,.64-.57,2.4-1.91,4.06-3.06,1.88-1.31,2.67-6.49,2.57-7.58,0-.12,0-.4-.26-.5a.41.41,0,0,0-.19,0c-.73,0-3.81,2.27-4.74,3a9.78,9.78,0,0,0-1.81,2A5,5,0,0,1,85.73,150a2.07,2.07,0,0,1-.82.16,3.6,3.6,0,0,1-1-.16l0,0c-.21-.06-4-1.48-6.86-2.58l2.78-1.21s3.58-1.9,4.57-2.32a5,5,0,0,0,2.06-2c.18-.24.37-.51.6-.8,1.3-1.69-.79-5.42-2.4-7.38a13.21,13.21,0,0,1-2.7-5.16l-.13-.39,0-.07L81.7,128c-1.33-1.37-4.78-1.94-8.42-2.54a55.49,55.49,0,0,1-6.2-1.27c-3.34-1-3.88-2.3-4.46-3.7a7.12,7.12,0,0,0-1-1.86c-1.65-2.14-3.75-3.25-8.86-5.29-4.1-1.64-6.74-3-7.84-3.94a9.48,9.48,0,0,1-1.42-1.72l-.32-.51-.24.56a54.15,54.15,0,0,1-3.4,6.82,13.26,13.26,0,0,0-1.73,3v.1c-.08,2-.93,2.21-1.75,2.21l-.31,0h-.13c-1.43,0-2.1,2-2.32,2.9-1.08-.3-4.63-1.29-7.11-2a16.2,16.2,0,0,1,5.2-3.59c1.43-.47,2-3.37,2.3-5.84l0-.27a7.55,7.55,0,0,1,.34-1.23,6.29,6.29,0,0,0,.49-3.34c-.32-1.29.94-2.54,1-2.59l3.37-4.26.1-.13,0-.16s-.64-2.06-.93-3.5a14,14,0,0,1-.13-3.32c.11-.33.77-2.46-.3-3.81A4.81,4.81,0,0,1,37.05,85a4.33,4.33,0,0,0-.18-2c0-.19-.1-.39-.14-.61l0-.17a4.73,4.73,0,0,1-.08-2.12l0-.12-.08-.11a1.65,1.65,0,0,1-.36-1.35l.11-.31-.31-.1-1.12-.37-3.44-.7c-1.05-.23-1.19-.43-1.88-1.41-.12-.18-.26-.38-.43-.6a6.57,6.57,0,0,0-3.28-1.94,8.61,8.61,0,0,1-1.34-.54c-.79-.47-.93-1.11-.52-2.38l.11-.32-.33-.09-1.08-.35a5.46,5.46,0,0,1-1.86-5.15c.51-2.52,1.81-2.73,3.21-2.73h.7a3,3,0,0,0,2.56-1.28l.38-.39a5.45,5.45,0,0,1,2.65-1.54c.72-.19.85-1.18.85-1.26a2.57,2.57,0,0,1,2.23-2.17l.15,0c.27-.07.83-.28,1.61-.58A50.3,50.3,0,0,1,42.61,52a14.23,14.23,0,0,1,2.51-.26m0-.32a14.47,14.47,0,0,0-2.57.27c-3.14.55-8.18,2.7-9.08,3A2.94,2.94,0,0,0,30.86,57s-.09.88-.62,1a5.9,5.9,0,0,0-2.8,1.62c-1.15,1.16-1.32,1.54-2.72,1.58H24c-1.33,0-2.94.13-3.53,3a5.85,5.85,0,0,0,2,5.49l1.15.38c-.38,1.15-.42,2.12.66,2.75s3.45.92,4.53,2.4,1.11,1.83,2.5,2.13,3.43.7,3.43.7l1.09.36a1.92,1.92,0,0,0,.4,1.64,5.53,5.53,0,0,0,.13,2.41A6.17,6.17,0,0,1,36.74,85a5,5,0,0,0,.61,4c1,1.33.24,3.55.24,3.55A14.38,14.38,0,0,0,37.71,96c.31,1.48.95,3.53.95,3.53l-3.37,4.27a3.42,3.42,0,0,0-1,2.86c.37,1.49-.69,3.37-.84,4.45s-.59,5.35-2.12,5.85A16.51,16.51,0,0,0,25.61,121c2.93.78,7.92,2.18,7.92,2.18s.6-3,2.09-3h.44c1.34,0,2-.79,2.07-2.51a13,13,0,0,1,1.68-2.9,53.22,53.22,0,0,0,3.44-6.89,9.83,9.83,0,0,0,1.48,1.79c.79.7,2.7,1.9,7.93,4s7.17,3.17,8.73,5.19.68,4.23,5.6,5.68,12.46,1.64,14.49,3.72a14.23,14.23,0,0,0,2.88,5.65c1.85,2.23,3.46,5.59,2.4,7s-1.51,2.25-2.53,2.68-4.6,2.33-4.6,2.33l-3.47,1.51s7.41,2.82,7.61,2.87a4.13,4.13,0,0,0,1.14.19,2.3,2.3,0,0,0,1-.19c.87-.4,1.85-2.51,3.16-3.48s4-2.9,4.55-2.9h.05c.38.17-.47,6.22-2.35,7.53a31,31,0,0,0-4.4,3.43c0,.21,7.91,2.25,7.91,2.25s.63,0,.83-1,.15-2.4.92-2.4h.4c.62,0,1.19-.12,1.37-1.69.23-1.89,1.28-7.4,2.2-9s-.4-3.17-1-4.72-1.38-6.85-.23-9.34c.5,1.25,3.51,6.45,8.51,6.53h.28c4.82,0,7.36-2,8.61-8.23s-3.17-11.38-3.17-11.38a33.31,33.31,0,0,1-5.47-9.34c-1.78-5.07-4.24-6.57-5.28-7.12S98.44,97.84,96.23,97a14.35,14.35,0,0,1-6-3.83c-1.59-1.89-2.74-4.64-7.42-8.81s-5.18-4.87-7.33-6.49h0a.67.67,0,0,1-.39-.15,2.86,2.86,0,0,1-.91-1.46c-.59-1.69-2.35-6.62-3.8-8.75s-3.85-7.79-15.22-8c-1.7-.18-2.67-.22-3.35-1.59s-1.54-4.94-3.23-5.67a7.7,7.7,0,0,0-3.42-.82Z" transform="translate(-3.38 -0.84)" fill="#010101"/><path d="M34.38,59c-.51.8.1,1.63,1,1.88a1.71,1.71,0,0,0,2.1-1.22c.25-.92-.19-1.34-1.11-1.59S35.1,57.88,34.38,59Z" transform="translate(-3.38 -0.84)" fill="none" stroke="#010101" stroke-miterlimit="10" stroke-width="0.18"/><path d="M29,62.4,32.41,61c.49-.29,1.28.56,1.7-1.18.54-2.18,2.28-1.74,2.28-1.74s2.54.93,3.13.56c0,0,.6-.33,0-1.6" transform="translate(-3.38 -0.84)" fill="none" stroke="#010101" stroke-miterlimit="10" stroke-width="0.18"/><path d="M34.91,58.5a.95.95,0,0,0,1.83.48c.13-.5-.11-.79-.62-.93S35.05,58,34.91,58.5Z" transform="translate(-3.38 -0.84)" fill="#e5f4f8" stroke="#010101" stroke-miterlimit="10" stroke-width="0.24"/><path d="M34.47,50.3c-10.81-7.48-10.3-15.47-10.3-15.47s-.87,7.87,3,13.87a46,46,0,0,0,5.48,6.35l6-2.21Z" transform="translate(-3.38 -0.84)" fill="#e5f4f8" stroke="#010101" stroke-miterlimit="10" stroke-width="0.24"/><path d="M32,56.24c-.2-.06,0,2.43-.54,2.78" transform="translate(-3.38 -0.84)" fill="none" stroke="#010101" stroke-miterlimit="10" stroke-width="0.18"/><path d="M46.84,58.66s-.48,1.26,1.06,1.25a17.29,17.29,0,0,1,7.64,1.18s-1.91,5.51-6.66,4.74-2.46-2.2-4.72-1.54" transform="translate(-3.38 -0.84)" fill="none" stroke="#010101" stroke-miterlimit="10" stroke-width="0.18"/><path d="M54.42,61.6s-5.77-1.08-9,1.32" transform="translate(-3.38 -0.84)" fill="none" stroke="#010101" stroke-miterlimit="10" stroke-width="0.18"/><path d="M45.59,52.88a3.86,3.86,0,0,1,3.65,3.84" transform="translate(-3.38 -0.84)" fill="none" stroke="#010101" stroke-miterlimit="10" stroke-width="0.18"/><path d="M21.47,63.33a7,7,0,0,0-3.22,1.86c-1.1,1-2.35,3.84.39,4.57,4.15,1.1,6.38-5.9,6.38-5.9a1.8,1.8,0,0,0-1.48-.19c-.84.27-1,3.37-3.27,3.88s-.29-2-.29-2l1.33-1.32Z" transform="translate(-3.38 -0.84)" fill="#25859b" stroke="#010101" stroke-miterlimit="10" stroke-width="0.24"/><path d="M107.44,117s8.32,3.33,5.15,10.78-8.26.38-8.26.38l-1.66-2.67A19.57,19.57,0,0,0,107.44,117Z" transform="translate(-3.38 -0.84)" fill="none" stroke="#010101" stroke-miterlimit="10" stroke-width="0.18"/><path d="M108,110.05s1,2.12-.67,7.23" transform="translate(-3.38 -0.84)" fill="none" stroke="#010101" stroke-miterlimit="10" stroke-width="0.18"/><path d="M81.79,109.28s-4.42,6.49.43,18.65" transform="translate(-3.38 -0.84)" fill="none" stroke="#010101" stroke-miterlimit="10" stroke-width="0.18"/><path d="M75.76,108.86s4.19,2,4.36,5.45" transform="translate(-3.38 -0.84)" fill="none" stroke="#010101" stroke-miterlimit="10" stroke-width="0.18"/><path d="M76.35,105.39a23.9,23.9,0,0,1-17.4-1.1" transform="translate(-3.38 -0.84)" fill="none" stroke="#010101" stroke-miterlimit="10" stroke-width="0.18"/><path d="M59.82,97.87c-.14.22-2.56,5.8-7.6,6.73s-5.91.25-8.17,3.24" transform="translate(-3.38 -0.84)" fill="none" stroke="#010101" stroke-miterlimit="10" stroke-width="0.18"/><path d="M42.16,77.25c-.44,0-1.31,1.94-5.46,1.16" transform="translate(-3.38 -0.84)" fill="none" stroke="#010101" stroke-miterlimit="10" stroke-width="0.18"/><path d="M40.13,80.75a3.14,3.14,0,0,1-2.58-.44" transform="translate(-3.38 -0.84)" fill="none" stroke="#010101" stroke-miterlimit="10" stroke-width="0.18"/><path d="M56.12,68.16c-.34,0-12.15,4.18-14.4,19.58" transform="translate(-3.38 -0.84)" fill="none" stroke="#010101" stroke-linecap="round" stroke-linejoin="round" stroke-width="0.48"/><path d="M48.35,67.61s-.31,6.82-6.66,8.25" transform="translate(-3.38 -0.84)" fill="none" stroke="#010101" stroke-linecap="round" stroke-linejoin="round" stroke-width="0.48"/><path d="M27.83,33.71s-.54,10.67,16.43,18.68c0,0,4.21,1.47,2.51,4.43s-7-.59-7-.59A29.78,29.78,0,0,1,31,47.54C27.05,41.6,27.83,33.71,27.83,33.71Z" transform="translate(-3.38 -0.84)" fill="#e5f4f8" stroke="#010101" stroke-miterlimit="10" stroke-width="0.24"/><path d="M53.18,76.22c-.17.1-9,3.37-9.41,10.37,0,0,.56,5.22.21,6.19s-1.43.83-2.35,2.87a15.05,15.05,0,0,1-2.28,4" transform="translate(-3.38 -0.84)" fill="none" stroke="#010101" stroke-miterlimit="10" stroke-width="0.18"/><path d="M48.36,96.41c0-.14,1.41-3.38-1.33-4.11s-2.87.86-3.52,1.2" transform="translate(-3.38 -0.84)" fill="none" stroke="#010101" stroke-miterlimit="10" stroke-width="0.18"/><circle cx="31.84" cy="57.99" r="0.47" fill="#010101"/><path d="M29.82,69s-1.13-.72-3.46-.08-2.72.91-2.67,1.76" transform="translate(-3.38 -0.84)" fill="none" stroke="#010101" stroke-miterlimit="10" stroke-width="0.18"/><path d="M45.83,66.13s-.55,8.08-5,7.31-5-1.19-5.82-.65" transform="translate(-3.38 -0.84)" fill="none" stroke="#010101" stroke-linecap="round" stroke-linejoin="round" stroke-width="0.48"/><path d="M24.94,64.6l1.48-.3s-.22-.57-1.36-1-2.45-.42-2.46.32.27.91.27.91.36-1.16,1.4-.88S24.94,64.6,24.94,64.6Z" transform="translate(-3.38 -0.84)" fill="#010101"/></g></svg>