<svg xmlns="http://www.w3.org/2000/svg" width="243.09" height="69.62" viewBox="0 0 243.09 69.62"><path d="M20.32,75.16H5.91L28.35,5.54H44.59L67,75.16H52L47.49,59.49H25Zm3.29-17.6H48.84l4.55,15.66H64.51L43.33,7.47H29.6L8.43,73.22H19Zm22.53-9.29L37.05,17H35.69L26.41,48.27ZM36.37,20.81l7.35,25.53H28.83Z" transform="translate(-5.91 -5.54)" fill="#fff"/><path d="M112.47,5.54c8.12,0,13.73,5.6,13.73,13.73V61.43c0,8.12-5.61,13.73-13.73,13.73H76.21V5.54ZM109,62a3,3,0,0,0,3.28-3.29V22A3,3,0,0,0,109,18.69H90.13V62Z" transform="translate(-5.91 -5.54)" fill="#fff"/><path d="M185.37,5.54V18.69H153.75V33h25.63V46.15H153.75V62h31.62V75.16H139.83V5.54Z" transform="translate(-5.91 -5.54)" fill="#fff"/><path d="M205.78,75.16H190.59l20.89-35.68L191.17,5.54h16.25l13,22L233.24,5.54h15.18L228.21,40.35,249,75.16H232.75l-13.53-23Z" transform="translate(-5.91 -5.54)" fill="#fff"/></svg>